<svg width="647" height="936" viewBox="0 0 647 936" fill="none" xmlns="http://www.w3.org/2000/svg">
<rect y="38" width="598" height="886" fill="#0E0E0E"/>
<path d="M66 120H166C167.105 120 168 120.895 168 122V896H66V120Z" fill="#D9D9D9"/>
<path d="M429.15 340.337L167.288 491.317V189.357L429.15 340.337Z" fill="#D9D9D9"/>
<path d="M171.125 893L183.723 836.164H185.188L191.047 863.508L184.602 893H171.125ZM191.926 884.699L194.855 871.223H198.371L188.02 824.641H201.594L217.707 893H204.035L202.082 884.699H191.926ZM223.664 893V824.641H237.434V893H223.664ZM241.34 859.699L251.789 824.641H265.363L255.012 859.699L265.754 893H252.277L241.34 859.699ZM270.344 893L282.941 836.164H284.406L290.266 863.508L283.82 893H270.344ZM291.145 884.699L294.074 871.223H297.59L287.238 824.641H300.812L316.926 893H303.254L301.301 884.699H291.145ZM321.906 874.152V824.641H335.676V874.152C335.741 876.822 337.238 878.579 340.168 879.426C340.624 879.556 340.949 879.621 341.145 879.621V893.488C337.368 893.488 333.592 892.154 329.816 889.484C324.608 885.643 321.971 880.533 321.906 874.152ZM346.418 893.488V879.621C347.59 879.621 348.827 879.068 350.129 877.961C351.236 876.919 351.822 875.65 351.887 874.152V824.641H365.559V874.152C365.559 881.509 362.303 887.01 355.793 890.656C352.538 892.544 349.413 893.488 346.418 893.488ZM370.246 838.117V824.641H412.531V838.117H398.273V893H384.504V838.117H370.246Z" fill="white"/>
<path d="M451 348H553V896H451V348Z" fill="#D9D9D9"/>
<path d="M467.651 394.198L514.37 692.384L204.131 541.352L467.651 394.198Z" fill="#D9D9D9"/>
<path d="M438.707 341.491L571.033 346.497L554.22 406.237L438.707 341.491Z" fill="#0E0E0E"/>
<path d="M479.102 576V507.641H492.773V576H479.102ZM498.145 576V563.988H498.633C502.539 563.988 505.143 562.361 506.445 559.105C506.901 558.064 507.129 556.99 507.129 555.883C507.129 552.628 505.827 550.284 503.223 548.852C501.921 548.135 500.488 547.777 498.926 547.777H498.145V535.863H498.926C502.572 535.863 505.078 534.301 506.445 531.176C506.901 530.069 507.129 528.93 507.129 527.758C507.129 524.568 505.794 522.224 503.125 520.727C501.758 520.01 500.26 519.652 498.633 519.652H498.145V507.641H500.488C508.952 507.641 514.909 510.733 518.359 516.918C519.987 519.913 520.801 523.201 520.801 526.781C520.801 532.445 519.076 537.035 515.625 540.551C515.104 541.007 514.616 541.43 514.16 541.82C517.936 544.62 520.117 548.884 520.703 554.613C520.768 555.395 520.801 556.143 520.801 556.859C520.801 563.174 518.587 568.122 514.16 571.703C510.514 574.568 505.957 576 500.488 576H498.145ZM478.125 637.152V587.641H491.895V637.152C491.96 639.822 493.457 641.579 496.387 642.426C496.842 642.556 497.168 642.621 497.363 642.621V656.488C493.587 656.488 489.811 655.154 486.035 652.484C480.827 648.643 478.19 643.533 478.125 637.152ZM502.637 656.488V642.621C503.809 642.621 505.046 642.068 506.348 640.961C507.454 639.919 508.04 638.65 508.105 637.152V587.641H521.777V637.152C521.777 644.509 518.522 650.01 512.012 653.656C508.757 655.544 505.632 656.488 502.637 656.488ZM481.055 736V667.641H494.824V736H481.055ZM500.098 736V722.23C501.53 722.23 502.865 721.645 504.102 720.473C505.013 719.431 505.501 718.194 505.566 716.762V686.879C505.566 685.577 505.013 684.307 503.906 683.07C502.865 682.029 501.595 681.475 500.098 681.41V667.641C507.324 667.641 512.793 670.863 516.504 677.309C518.392 680.629 519.336 683.819 519.336 686.879V716.762C519.336 724.184 516.048 729.717 509.473 733.363C506.217 735.121 503.092 736 500.098 736ZM481.055 816V747.641H494.824V816H481.055ZM500.098 816V802.23C501.53 802.23 502.865 801.645 504.102 800.473C505.013 799.431 505.501 798.194 505.566 796.762V766.879C505.566 765.577 505.013 764.307 503.906 763.07C502.865 762.029 501.595 761.475 500.098 761.41V747.641C507.324 747.641 512.793 750.863 516.504 757.309C518.392 760.629 519.336 763.819 519.336 766.879V796.762C519.336 804.184 516.048 809.717 509.473 813.363C506.217 815.121 503.092 816 500.098 816ZM479.15 827.641H493.506L506.201 871.293V896H491.943V871.391L479.15 827.641ZM502.881 840.824L506.689 827.641H520.85L510.205 863.676H509.326L502.881 840.824Z" fill="#0E0E0E"/>
<rect y="281.721" width="273" height="58.7433" transform="rotate(-29.5698 0 281.721)" fill="#0E0E0E"/>
<path d="M175.427 194.753L42.8716 121.616L180.738 43.4524L175.427 194.753Z" fill="#0E0E0E"/>
</svg>
