<svg width="628" height="998" viewBox="0 0 628 998" fill="none" xmlns="http://www.w3.org/2000/svg">
<path d="M580.768 874H480.768C479.663 874 478.768 873.105 478.768 872L478.768 7.62939e-05H580.768L580.768 874Z" fill="#262626"/>
<path d="M217.618 681.663L479.481 530.683L479.481 832.643L217.618 681.663Z" fill="#262626"/>
<path d="M195.768 674H93.7681L93.7681 0H195.768L195.768 674Z" fill="#262626"/>
<path d="M179.117 627.802L132.398 329.616L442.637 480.648L179.117 627.802Z" fill="#262626"/>
<path d="M208.061 680.509L75.7347 675.503L92.5481 615.763L208.061 680.509Z" fill="#171717"/>
<path d="M452.341 803.247L584.896 876.384L447.03 954.548L452.341 803.247Z" fill="#171717"/>
<rect x="627.768" y="716.279" width="273" height="58.7433" transform="rotate(150.43 627.768 716.279)" fill="#171717"/>
<rect x="590.363" y="244" width="248.768" height="58.7433" transform="rotate(-146.521 590.363 244)" fill="#171717"/>
<rect x="281.768" y="279" width="249" height="69" transform="rotate(-180 281.768 279)" fill="#171717"/>
</svg>
