<svg width="628" height="998" viewBox="0 0 628 998" fill="none" xmlns="http://www.w3.org/2000/svg">
<path d="M47 124H147C148.105 124 149 124.895 149 126V998H47V124Z" fill="#262626"/>
<path d="M410.15 316.337L148.288 467.317V165.357L410.15 316.337Z" fill="#262626"/>
<path d="M432 324H534V998H432V324Z" fill="#262626"/>
<path d="M448.651 370.199L495.37 668.384L185.131 517.352L448.651 370.199Z" fill="#262626"/>
<path d="M419.707 317.491L552.033 322.497L535.22 382.237L419.707 317.491Z" fill="#171717"/>
<path d="M175.427 194.753L42.8716 121.616L180.738 43.4524L175.427 194.753Z" fill="#171717"/>
<rect y="281.721" width="273" height="58.7433" transform="rotate(-29.5698 0 281.721)" fill="#171717"/>
<rect x="37.4048" y="754" width="248.768" height="58.7433" transform="rotate(33.479 37.4048 754)" fill="#171717"/>
<rect x="346" y="719" width="249" height="69" fill="#171717"/>
</svg>
