<svg width="595" height="998" viewBox="0 0 595 998" fill="none" xmlns="http://www.w3.org/2000/svg">
<path d="M548 874H448C446.895 874 446 873.105 446 872L446 0H548L548 874Z" fill="#262626"/>
<path d="M184.85 681.663L446.712 530.683L446.712 832.643L184.85 681.663Z" fill="#262626"/>
<path d="M163 674H61L61 0H163L163 674Z" fill="#262626"/>
<path d="M146.349 627.802L99.6302 329.616L409.869 480.648L146.349 627.802Z" fill="#262626"/>
<path d="M175.293 680.509L42.9667 675.503L59.7801 615.763L175.293 680.509Z" fill="#171717"/>
<path d="M419.573 803.247L552.128 876.384L414.262 954.548L419.573 803.247Z" fill="#171717"/>
<rect x="595" y="716.279" width="273" height="58.7433" transform="rotate(150.43 595 716.279)" fill="#171717"/>
<rect x="557.595" y="244" width="248.768" height="58.7433" transform="rotate(-146.521 557.595 244)" fill="#171717"/>
<rect x="249" y="279" width="249" height="69" transform="rotate(-180 249 279)" fill="#171717"/>
</svg>
